<?xml version="1.0" encoding="UTF-8" standalone="no"?>
<!DOCTYPE svg PUBLIC "-//W3C//DTD SVG 1.1//EN"
 "http://www.w3.org/Graphics/SVG/1.1/DTD/svg11.dtd">
<!-- Generated by graphviz version 2.40.1 (20161225.0304)
 -->
<!-- Title: G Pages: 1 -->
<svg width="139pt" height="233pt"
 viewBox="0.00 0.00 139.00 233.00" xmlns="http://www.w3.org/2000/svg" xmlns:xlink="http://www.w3.org/1999/xlink">
<g id="graph0" class="graph" transform="scale(1 1) rotate(0) translate(4 229)">
<title>G</title>
<polygon fill="#ffffff" stroke="transparent" points="-4,4 -4,-229 135,-229 135,4 -4,4"/>
<!-- N_0 -->
<g id="node1" class="node">
<title>N_0</title>
<ellipse fill="#000000" stroke="#000000" cx="58" cy="-216" rx="9" ry="9"/>
</g>
<!-- N_1 -->
<g id="node2" class="node">
<title>N_1</title>
<g id="a_node2"><a xlink:title="Variable save_counter shape=[] int64">
<ellipse fill="#0000ff" stroke="#0000ff" cx="9" cy="-147" rx="9" ry="9"/>
</a>
</g>
</g>
<!-- N_0&#45;&gt;N_1 -->
<g id="edge1" class="edge">
<title>N_0&#45;&gt;N_1</title>
<path fill="none" stroke="#000000" d="M49.0181,-213.8532C37.6645,-210.6085 18.5692,-203.2598 10,-189 5.9613,-182.2794 5.1382,-173.797 5.5422,-166.2175"/>
<polygon fill="#000000" stroke="#000000" points="9.0434,-166.4195 6.7805,-156.0691 2.095,-165.5715 9.0434,-166.4195"/>
<text text-anchor="middle" x="48" y="-177.8" font-family="Times,serif" font-size="14.00" fill="#000000">save_counter</text>
</g>
<!-- N_2 -->
<g id="node3" class="node">
<title>N_2</title>
<ellipse fill="#000000" stroke="#000000" cx="108" cy="-147" rx="9" ry="9"/>
</g>
<!-- N_0&#45;&gt;N_2 -->
<g id="edge2" class="edge">
<title>N_0&#45;&gt;N_2</title>
<path fill="none" stroke="#000000" d="M65.0612,-210.3195C71.128,-205.1928 79.845,-197.2145 86,-189 91.5598,-181.5799 96.4862,-172.5582 100.2602,-164.7809"/>
<polygon fill="#000000" stroke="#000000" points="103.5234,-166.0616 104.514,-155.5132 97.1615,-163.1415 103.5234,-166.0616"/>
<text text-anchor="middle" x="104" y="-177.8" font-family="Times,serif" font-size="14.00" fill="#000000">net</text>
</g>
<!-- N_3 -->
<g id="node4" class="node">
<title>N_3</title>
<ellipse fill="#000000" stroke="#000000" cx="108" cy="-78" rx="9" ry="9"/>
</g>
<!-- N_2&#45;&gt;N_3 -->
<g id="edge3" class="edge">
<title>N_2&#45;&gt;N_3</title>
<path fill="none" stroke="#000000" d="M108,-137.9795C108,-127.7054 108,-110.6201 108,-97.3067"/>
<polygon fill="#000000" stroke="#000000" points="111.5001,-97.243 108,-87.243 104.5001,-97.243 111.5001,-97.243"/>
<text text-anchor="middle" x="114" y="-108.8" font-family="Times,serif" font-size="14.00" fill="#000000">l1</text>
</g>
<!-- N_4 -->
<g id="node5" class="node">
<title>N_4</title>
<g id="a_node5"><a xlink:title="Variable Variable shape=[5] float32">
<ellipse fill="#0000ff" stroke="#0000ff" cx="108" cy="-9" rx="9" ry="9"/>
</a>
</g>
</g>
<!-- N_3&#45;&gt;N_4 -->
<g id="edge4" class="edge">
<title>N_3&#45;&gt;N_4</title>
<path fill="none" stroke="#000000" d="M108,-68.9795C108,-58.7054 108,-41.6201 108,-28.3067"/>
<polygon fill="#000000" stroke="#000000" points="111.5001,-28.243 108,-18.243 104.5001,-28.243 111.5001,-28.243"/>
<text text-anchor="middle" x="119.5" y="-39.8" font-family="Times,serif" font-size="14.00" fill="#000000">bias</text>
</g>
</g>
</svg>
