<?xml version="1.0" encoding="UTF-8" standalone="no"?>
<!DOCTYPE svg PUBLIC "-//W3C//DTD SVG 1.1//EN"
 "http://www.w3.org/Graphics/SVG/1.1/DTD/svg11.dtd">
<!-- Generated by graphviz version 2.40.1 (20161225.0304)
 -->
<!-- Title: G Pages: 1 -->
<svg width="589pt" height="302pt"
 viewBox="0.00 0.00 589.28 302.00" xmlns="http://www.w3.org/2000/svg" xmlns:xlink="http://www.w3.org/1999/xlink">
<g id="graph0" class="graph" transform="scale(1 1) rotate(0) translate(4 298)">
<title>G</title>
<polygon fill="#ffffff" stroke="transparent" points="-4,4 -4,-298 585.2816,-298 585.2816,4 -4,4"/>
<!-- N_0 -->
<g id="node1" class="node">
<title>N_0</title>
<ellipse fill="#000000" stroke="#000000" cx="406" cy="-285" rx="9" ry="9"/>
</g>
<!-- N_1 -->
<g id="node2" class="node">
<title>N_1</title>
<ellipse fill="#000000" stroke="#000000" cx="388" cy="-216" rx="9" ry="9"/>
</g>
<!-- N_0&#45;&gt;N_1 -->
<g id="edge1" class="edge">
<title>N_0&#45;&gt;N_1</title>
<path fill="none" stroke="#000000" d="M399.7025,-278.5365C395.1915,-273.4282 389.4912,-265.8689 387,-258 384.6902,-250.7042 384.4418,-242.3337 384.9529,-234.995"/>
<polygon fill="#000000" stroke="#000000" points="388.4454,-235.2639 386.1434,-224.9222 381.4938,-234.4423 388.4454,-235.2639"/>
<text text-anchor="middle" x="396" y="-246.8" font-family="Times,serif" font-size="14.00" fill="#000000">net</text>
</g>
<!-- N_2 -->
<g id="node3" class="node">
<title>N_2</title>
<g id="a_node3"><a xlink:title="Optimizer">
<ellipse fill="#ff0000" stroke="#ff0000" cx="333" cy="-78" rx="9" ry="9"/>
</a>
</g>
</g>
<!-- N_0&#45;&gt;N_2 -->
<g id="edge2" class="edge">
<title>N_0&#45;&gt;N_2</title>
<path fill="none" stroke="#000000" d="M398.6234,-279.0742C392.8007,-274.034 384.872,-266.3079 380,-258 349.0275,-205.1849 338.1532,-131.8862 334.5952,-97.4019"/>
<polygon fill="#000000" stroke="#000000" points="338.0648,-96.9124 333.6506,-87.2809 331.0951,-97.5629 338.0648,-96.9124"/>
<text text-anchor="middle" x="379.5" y="-177.8" font-family="Times,serif" font-size="14.00" fill="#000000">optimizer</text>
</g>
<!-- N_3 -->
<g id="node4" class="node">
<title>N_3</title>
<g id="a_node4"><a xlink:title="Variable Variable shape=[] int32">
<ellipse fill="#0000ff" stroke="#0000ff" cx="427" cy="-216" rx="9" ry="9"/>
</a>
</g>
</g>
<!-- N_0&#45;&gt;N_3 -->
<g id="edge3" class="edge">
<title>N_0&#45;&gt;N_3</title>
<path fill="none" stroke="#000000" d="M408.6597,-276.2611C411.8296,-265.8455 417.2146,-248.152 421.3319,-234.6237"/>
<polygon fill="#000000" stroke="#000000" points="424.7323,-235.4717 424.2956,-224.8859 418.0356,-233.4335 424.7323,-235.4717"/>
<text text-anchor="middle" x="429.5" y="-246.8" font-family="Times,serif" font-size="14.00" fill="#000000">step</text>
</g>
<!-- N_4 -->
<g id="node5" class="node">
<title>N_4</title>
<g id="a_node5"><a xlink:title="Variable save_counter shape=[] int64">
<ellipse fill="#0000ff" stroke="#0000ff" cx="473" cy="-216" rx="9" ry="9"/>
</a>
</g>
</g>
<!-- N_0&#45;&gt;N_4 -->
<g id="edge4" class="edge">
<title>N_0&#45;&gt;N_4</title>
<path fill="none" stroke="#000000" d="M414.1312,-280.6013C422.5158,-275.8004 435.6497,-267.5158 445,-258 452.3283,-250.542 458.9078,-240.9127 463.8445,-232.7561"/>
<polygon fill="#000000" stroke="#000000" points="466.8848,-234.4901 468.8318,-224.0757 460.8152,-231.0029 466.8848,-234.4901"/>
<text text-anchor="middle" x="494" y="-246.8" font-family="Times,serif" font-size="14.00" fill="#000000">save_counter</text>
</g>
<!-- N_5 -->
<g id="node6" class="node">
<title>N_5</title>
<ellipse fill="#000000" stroke="#000000" cx="483" cy="-147" rx="9" ry="9"/>
</g>
<!-- N_1&#45;&gt;N_5 -->
<g id="edge5" class="edge">
<title>N_1&#45;&gt;N_5</title>
<path fill="none" stroke="#000000" d="M395.4545,-210.5857C410.8547,-199.4003 446.4722,-173.5307 467.2199,-158.4614"/>
<polygon fill="#000000" stroke="#000000" points="469.5459,-161.0977 475.5801,-152.3892 465.4322,-155.434 469.5459,-161.0977"/>
<text text-anchor="middle" x="450" y="-177.8" font-family="Times,serif" font-size="14.00" fill="#000000">l1</text>
</g>
<!-- N_6 -->
<g id="node7" class="node">
<title>N_6</title>
<g id="a_node7"><a xlink:title="Variable iter shape=[] int64">
<ellipse fill="#0000ff" stroke="#0000ff" cx="136" cy="-9" rx="9" ry="9"/>
</a>
</g>
</g>
<!-- N_2&#45;&gt;N_6 -->
<g id="edge6" class="edge">
<title>N_2&#45;&gt;N_6</title>
<path fill="none" stroke="#000000" d="M323.8469,-77.338C293.5058,-75.0135 196.6484,-66.5142 170,-51 159.8782,-45.1073 151.5427,-34.9734 145.6583,-26.1364"/>
<polygon fill="#000000" stroke="#000000" points="148.4693,-24.0242 140.2668,-17.3184 142.4972,-27.6758 148.4693,-24.0242"/>
<text text-anchor="middle" x="179.5" y="-39.8" font-family="Times,serif" font-size="14.00" fill="#000000">iter</text>
</g>
<!-- N_7 -->
<g id="node8" class="node">
<title>N_7</title>
<g id="a_node8"><a xlink:title="Variable learning_rate shape=[] float32">
<ellipse fill="#0000ff" stroke="#0000ff" cx="178" cy="-9" rx="9" ry="9"/>
</a>
</g>
</g>
<!-- N_2&#45;&gt;N_7 -->
<g id="edge7" class="edge">
<title>N_2&#45;&gt;N_7</title>
<path fill="none" stroke="#000000" d="M323.7843,-76.9168C298.1202,-73.7633 226.4417,-63.9833 207,-51 198.0053,-44.9933 190.9951,-35.1662 186.1218,-26.5275"/>
<polygon fill="#000000" stroke="#000000" points="189.2006,-24.8605 181.5359,-17.546 182.9663,-28.0438 189.2006,-24.8605"/>
<text text-anchor="middle" x="244.5" y="-39.8" font-family="Times,serif" font-size="14.00" fill="#000000">learning_rate</text>
</g>
<!-- N_8 -->
<g id="node9" class="node">
<title>N_8</title>
<g id="a_node9"><a xlink:title="Variable decay shape=[] float32">
<ellipse fill="#0000ff" stroke="#0000ff" cx="276" cy="-9" rx="9" ry="9"/>
</a>
</g>
</g>
<!-- N_2&#45;&gt;N_8 -->
<g id="edge8" class="edge">
<title>N_2&#45;&gt;N_8</title>
<path fill="none" stroke="#000000" d="M324.7635,-73.8459C316.3379,-69.2443 303.3346,-61.1204 295,-51 289.2692,-44.0413 284.9031,-35.075 281.8102,-27.2151"/>
<polygon fill="#000000" stroke="#000000" points="285.1071,-26.0399 278.4701,-17.7816 278.5086,-28.3763 285.1071,-26.0399"/>
<text text-anchor="middle" x="312" y="-39.8" font-family="Times,serif" font-size="14.00" fill="#000000">decay</text>
</g>
<!-- N_9 -->
<g id="node10" class="node">
<title>N_9</title>
<g id="a_node10"><a xlink:title="Variable beta_1 shape=[] float32">
<ellipse fill="#0000ff" stroke="#0000ff" cx="333" cy="-9" rx="9" ry="9"/>
</a>
</g>
</g>
<!-- N_2&#45;&gt;N_9 -->
<g id="edge9" class="edge">
<title>N_2&#45;&gt;N_9</title>
<path fill="none" stroke="#000000" d="M333,-68.9795C333,-58.7054 333,-41.6201 333,-28.3067"/>
<polygon fill="#000000" stroke="#000000" points="336.5001,-28.243 333,-18.243 329.5001,-28.243 336.5001,-28.243"/>
<text text-anchor="middle" x="352.5" y="-39.8" font-family="Times,serif" font-size="14.00" fill="#000000">beta_1</text>
</g>
<!-- N_10 -->
<g id="node11" class="node">
<title>N_10</title>
<g id="a_node11"><a xlink:title="Variable beta_2 shape=[] float32">
<ellipse fill="#0000ff" stroke="#0000ff" cx="9" cy="-9" rx="9" ry="9"/>
</a>
</g>
</g>
<!-- N_2&#45;&gt;N_10 -->
<g id="edge10" class="edge">
<title>N_2&#45;&gt;N_10</title>
<path fill="none" stroke="#000000" d="M323.8304,-77.5196C277.8174,-75.0573 73.2928,-63.4821 48,-51 36.3554,-45.2533 26.4482,-34.4514 19.5331,-25.2416"/>
<polygon fill="#000000" stroke="#000000" points="22.2481,-23.0156 13.6619,-16.8086 16.5033,-27.0153 22.2481,-23.0156"/>
<text text-anchor="middle" x="67.5" y="-39.8" font-family="Times,serif" font-size="14.00" fill="#000000">beta_2</text>
</g>
<!-- N_11 -->
<g id="node12" class="node">
<title>N_11</title>
<g id="a_node12"><a xlink:title="Variable epsilon shape=[] float32">
<ellipse fill="#0000ff" stroke="#0000ff" cx="71" cy="-9" rx="9" ry="9"/>
</a>
</g>
</g>
<!-- N_2&#45;&gt;N_11 -->
<g id="edge11" class="edge">
<title>N_2&#45;&gt;N_11</title>
<path fill="none" stroke="#000000" d="M323.9436,-77.7658C286.8369,-76.678 146.5671,-71.2758 108,-51 96.9043,-45.1667 87.5959,-34.5475 81.0909,-25.447"/>
<polygon fill="#000000" stroke="#000000" points="83.9956,-23.494 75.5581,-17.0862 78.158,-27.3571 83.9956,-23.494"/>
<text text-anchor="middle" x="129" y="-39.8" font-family="Times,serif" font-size="14.00" fill="#000000">epsilon</text>
</g>
<!-- N_14 -->
<g id="node13" class="node">
<title>N_14</title>
<g id="a_node13"><a xlink:title="Slot variable net_2/dense_2/net_2/dense_2/kernel/m shape=[1, 5] float32">
<ellipse fill="#ffa500" stroke="#ffa500" cx="529" cy="-9" rx="9" ry="9"/>
</a>
</g>
</g>
<!-- N_2&#45;&gt;N_14 -->
<g id="edge12" class="edge">
<title>N_2&#45;&gt;N_14</title>
<path fill="none" stroke="#000000" stroke-dasharray="1,5" d="M342.17,-76.6407C361.9506,-73.5381 409.9184,-65.0945 448,-51 471.3745,-42.3488 496.6147,-28.466 512.5972,-19.0507"/>
<polygon fill="#000000" stroke="#000000" points="514.4821,-22.0015 521.2528,-13.8523 510.878,-16.0005 514.4821,-22.0015"/>
<text text-anchor="middle" x="486" y="-39.8" font-family="Times,serif" font-size="14.00" fill="#000000">m</text>
</g>
<!-- N_15 -->
<g id="node15" class="node">
<title>N_15</title>
<g id="a_node15"><a xlink:title="Slot variable net_2/dense_2/net_2/dense_2/bias/m shape=[5] float32">
<ellipse fill="#ffa500" stroke="#ffa500" cx="425" cy="-9" rx="9" ry="9"/>
</a>
</g>
</g>
<!-- N_2&#45;&gt;N_15 -->
<g id="edge14" class="edge">
<title>N_2&#45;&gt;N_15</title>
<path fill="none" stroke="#000000" stroke-dasharray="1,5" d="M340.804,-73.0159C348.9666,-67.7375 362.0855,-59.0685 373,-51 385.8472,-41.5028 399.9152,-30.0737 410.1755,-21.5372"/>
<polygon fill="#000000" stroke="#000000" points="412.6739,-24.0099 418.0856,-14.9014 408.1749,-18.647 412.6739,-24.0099"/>
<text text-anchor="middle" x="397" y="-39.8" font-family="Times,serif" font-size="14.00" fill="#000000">m</text>
</g>
<!-- N_16 -->
<g id="node17" class="node">
<title>N_16</title>
<g id="a_node17"><a xlink:title="Slot variable net_2/dense_2/net_2/dense_2/kernel/v shape=[1, 5] float32">
<ellipse fill="#ffa500" stroke="#ffa500" cx="570" cy="-9" rx="9" ry="9"/>
</a>
</g>
</g>
<!-- N_2&#45;&gt;N_16 -->
<g id="edge16" class="edge">
<title>N_2&#45;&gt;N_16</title>
<path fill="none" stroke="#000000" stroke-dasharray="1,5" d="M342.1105,-77.6079C367.3031,-76.2896 439.7561,-70.9077 496,-51 517.476,-43.3985 539.932,-29.7135 554.3936,-20.0332"/>
<polygon fill="#000000" stroke="#000000" points="556.3951,-22.9046 562.6518,-14.3544 552.4288,-17.1367 556.3951,-22.9046"/>
<text text-anchor="middle" x="531" y="-39.8" font-family="Times,serif" font-size="14.00" fill="#000000">v</text>
</g>
<!-- N_17 -->
<g id="node18" class="node">
<title>N_17</title>
<g id="a_node18"><a xlink:title="Slot variable net_2/dense_2/net_2/dense_2/bias/v shape=[5] float32">
<ellipse fill="#ffa500" stroke="#ffa500" cx="482" cy="-9" rx="9" ry="9"/>
</a>
</g>
</g>
<!-- N_2&#45;&gt;N_17 -->
<g id="edge18" class="edge">
<title>N_2&#45;&gt;N_17</title>
<path fill="none" stroke="#000000" stroke-dasharray="1,5" d="M341.8406,-75.2843C355.9067,-70.851 384.1293,-61.4937 407,-51 427.918,-41.4022 450.8513,-28.1261 465.7805,-19.0865"/>
<polygon fill="#000000" stroke="#000000" points="467.6401,-22.0519 474.3336,-13.8393 463.9795,-16.0852 467.6401,-22.0519"/>
<text text-anchor="middle" x="440" y="-39.8" font-family="Times,serif" font-size="14.00" fill="#000000">v</text>
</g>
<!-- N_12 -->
<g id="node14" class="node">
<title>N_12</title>
<g id="a_node14"><a xlink:title="Variable net_2/dense_2/kernel shape=[1, 5] float32">
<ellipse fill="#0000ff" stroke="#0000ff" cx="569" cy="-78" rx="9" ry="9"/>
</a>
</g>
</g>
<!-- N_5&#45;&gt;N_12 -->
<g id="edge20" class="edge">
<title>N_5&#45;&gt;N_12</title>
<path fill="none" stroke="#000000" d="M490.0377,-141.3534C503.8902,-130.2392 534.9748,-105.2993 553.7464,-90.2384"/>
<polygon fill="#000000" stroke="#000000" points="556.0117,-92.9082 561.6212,-83.9202 551.631,-87.4483 556.0117,-92.9082"/>
<text text-anchor="middle" x="551" y="-108.8" font-family="Times,serif" font-size="14.00" fill="#000000">kernel</text>
</g>
<!-- N_13 -->
<g id="node16" class="node">
<title>N_13</title>
<g id="a_node16"><a xlink:title="Variable net_2/dense_2/bias shape=[5] float32">
<ellipse fill="#0000ff" stroke="#0000ff" cx="483" cy="-78" rx="9" ry="9"/>
</a>
</g>
</g>
<!-- N_5&#45;&gt;N_13 -->
<g id="edge21" class="edge">
<title>N_5&#45;&gt;N_13</title>
<path fill="none" stroke="#000000" d="M483,-137.9795C483,-127.7054 483,-110.6201 483,-97.3067"/>
<polygon fill="#000000" stroke="#000000" points="486.5001,-97.243 483,-87.243 479.5001,-97.243 486.5001,-97.243"/>
<text text-anchor="middle" x="494.5" y="-108.8" font-family="Times,serif" font-size="14.00" fill="#000000">bias</text>
</g>
<!-- N_12&#45;&gt;N_14 -->
<g id="edge13" class="edge">
<title>N_12&#45;&gt;N_14</title>
<path fill="none" stroke="#000000" stroke-dasharray="1,5" d="M567.2561,-69.1497C565.2435,-60.2975 561.3663,-46.5216 555,-36 551.9617,-30.9787 547.8373,-26.1443 543.7691,-21.9884"/>
<polygon fill="#000000" stroke="#000000" points="545.9931,-19.2749 536.3158,-14.962 541.1913,-24.3684 545.9931,-19.2749"/>
</g>
<!-- N_12&#45;&gt;N_16 -->
<g id="edge17" class="edge">
<title>N_12&#45;&gt;N_16</title>
<path fill="none" stroke="#000000" stroke-dasharray="1,5" d="M573.3383,-69.7476C575.8312,-64.5303 578.7156,-57.5567 580,-51 581.2816,-44.4577 581.1762,-42.5621 580,-36 579.4543,-32.9556 578.5883,-29.8055 577.5885,-26.7788"/>
<polygon fill="#000000" stroke="#000000" points="580.7992,-25.3762 573.9463,-17.296 574.2646,-27.8861 580.7992,-25.3762"/>
</g>
<!-- N_13&#45;&gt;N_15 -->
<g id="edge15" class="edge">
<title>N_13&#45;&gt;N_15</title>
<path fill="none" stroke="#000000" stroke-dasharray="1,5" d="M477.0114,-70.8757C467.8075,-59.9262 449.9728,-38.709 437.7788,-24.2024"/>
<polygon fill="#000000" stroke="#000000" points="440.1566,-21.5917 431.0429,-16.1889 434.7982,-26.0959 440.1566,-21.5917"/>
</g>
<!-- N_13&#45;&gt;N_17 -->
<g id="edge19" class="edge">
<title>N_13&#45;&gt;N_17</title>
<path fill="none" stroke="#000000" stroke-dasharray="1,5" d="M488.6364,-70.9245C492.3877,-65.7422 496.9839,-58.357 499,-51 500.762,-44.5704 500.8485,-42.4053 499,-36 497.8577,-32.0417 495.9442,-28.1045 493.8041,-24.5101"/>
<polygon fill="#000000" stroke="#000000" points="496.524,-22.2876 487.9837,-16.0176 490.75,-26.245 496.524,-22.2876"/>
</g>
</g>
</svg>
